<?xml version="1.0"?>
<svg
	version="1.2"
	baseProfile="tiny"
	xmlns="http://www.w3.org/2000/svg"
	width="120"
	height="120"
	viewBox="0 0 120 120"
>
	<title>waspscripts.com</title>

	<g
		transform="translate(-0.229043 0) translate(-0.229043 0) translate(-0.229043 0) translate(-0.229043 0) translate(-0.229043 0) translate(-0.229043 0) translate(-0.229043 0) translate(-0.229043 0) translate(-0.229043 0) translate(-0.229043 0) translate(-0.229043 0) translate(-0.229043 0) translate(-0.229043 0) translate(-0.229043 0) translate(-0.229043 0) translate(-0.229043 0) translate(-0.229043 0) translate(-0.229043 0) translate(-0.229043 0) translate(-0.229043 0) translate(-0.229043 0) translate(-0.229043 0) translate(-0.229043 0) translate(-0.229043 0) translate(-0.229043 0) translate(-0.229043 0) translate(-0.229043 0) translate(-0.229043 0) translate(-0.229043 0) translate(-0.229043 0) translate(-0.229043 0) translate(-0.229043 0) translate(-0.229043 0) translate(0 -0.229043) matrix(0.632994 0 0 0.632994 -414.312 -259.85)"
		fill="#f9c915"
		>
		<path
			d="m811.91,472.24c-0.69,-0.46 -4.6,-2.02 -5.44,-2.26l-7.12,-8.57c-6.85,-8.18 -9.18,-9.65 -15.22,-16.19l-8.25,-7.46c-4.14,-3.51 -31.33,-26.11 -37.39,-25.51c-0.84,8.55 22.59,23.67 28.99,28.14c4.29,3 19.55,14.81 23.69,19.26c2.36,2.37 4.62,5.06 6.86,7.3c-1.14,-0.46 -11.34,-4.48 -19.11,7.15c-3.99,5.95 -5.24,15.29 -3.45,23.69c3.24,15.11 13.33,25.47 24.27,32.77c5.32,3.55 13.15,7.53 20,8.46c5.72,0.79 7.18,-0.55 8.62,-5.25c3.66,-11.94 3.35,-26.46 0.15,-38.06c-2.12,-7.7 -6.12,-13.42 -10.12,-18.32c-6.83,-15.4 -16.25,-27.58 -26.75,-39.68c-0.62,-0.73 -12.79,-15.68 -11.65,-8.54c1.06,6.67 13.97,19.51 19.67,26.16c2.9,3.39 11.18,13.54 12.25,16.91zm-19.45,39c6.6,12.22 24.07,20.06 26.46,15.35c3.4,-6.71 1.92,-24.12 -5.34,-33.41c-11.37,-14.58 -31.63,-1.41 -21.12,18.06z"
			fill-rule="evenodd"
		/>
		<path
			d="m800.91,533.84c-6.76,10.99 -33.25,-6.1 -32.22,-20.3c0.23,-3.3 1.1,-4.16 2.78,-6.22c-8.52,2.5 -18.25,17.67 -1.16,31.85c4.38,3.62 10.9,6.99 17.92,7.66c9.82,0.94 13.93,-6.42 12.68,-12.99z"
		/>

		<path
			d="m682.88,482.66l-10.98,0.84c-1.74,0.28 -1.65,0.69 -0.9,2.05c0.98,1.78 6.02,6.6 7.57,7.87c10.85,8.96 26.51,19.87 42.05,19.84c10.9,-0.02 28.54,-3.87 39.37,-7.11c6.43,-1.92 3.22,-4.74 -1.07,-7.22c-6.35,-3.67 -14.14,-6.82 -21.86,-9.24c-15.44,-4.84 -36.15,-8.03 -54.18,-7.03z"
		/>
		<path
			d="m752.86,574.43c-7.94,7.35 -1.21,1.12 -8.12,7.29c4.98,1.66 11.18,2.98 16.46,4.38l41.27,10.95c2.61,0.65 5.74,1.39 8.63,2.08c-2.16,-1.05 -39.32,-17.32 -44.42,-19.57c2.65,-1.27 13.69,-4.86 15.41,-6.29c-15.67,-0.35 -33.53,-7.73 -39.36,-23.41c-2.21,3.22 -0.73,11.89 1.06,15.21c3.25,6.02 7.12,7.4 9.07,9.36z"
		/>
		<path
			d="m806.68,543.53c-3.4,17.78 -35.81,5.68 -45.33,-3.74c-3.46,-3.43 -6.89,-7.04 -8.81,-12.92c-2.17,-6.62 0.19,-13.24 4.12,-16.1c-3.16,0.83 -8.5,7.15 -10.39,9.83c-3.06,4.35 -4.98,9.38 -4.39,16.32c1.77,20.86 32.17,34.48 50.56,31.5c6.72,-1.08 10.71,-3.28 13.26,-7.62c2.73,-4.62 2.9,-12.01 0.99,-17.27l-0.01,0z"
		/>
		<path
			d="m769.94,502.22c5.31,-4.35 -12.56,-23.84 -16.33,-27.11c-3.94,-3.42 -7.89,-6.56 -13.24,-9.55c-2.97,-1.65 -13.01,-6.08 -16.85,-6.1c-3.45,4.51 -3.64,17.91 -2.2,20.03c0.73,1.09 7.5,2.17 9.29,2.64c11.52,3.05 23.09,8.3 32.39,14.99c1.63,1.17 5.54,4.91 6.94,5.1z"
		/>
	</g>
</svg>
